# xmcd
#
# Track frame offsets:
#  150
#  23889
#  55386
#  96699
#  120742
#  152658
#  177307
#  201289
#  222868
#
# Disc length: 3307 seconds
#
# Revision: 1
# Processed by: cddbd v1.5.1PL2 Copyright (c) Steve Scherf et al.
# Submitted via: Collectorz.com_Music_Collector 6.10
#
DISCID=830ce909
DTITLE=Joe Fiedler Trio - Plays The Music Of Albert Mangelsdorff
DYEAR=2006
DGENRE=Jazz
TTITLE0=Wheat Song
TTITLE1=Rip Off
TTITLE2=Now JazzRamwong
TTITLE3=An Ant Steps On An Elephant's Toe
TTITLE4=Mayday Hym
TTITLE5=Lapwing
TTITLE6=Zores Mores
TTITLE7=Wart G'Schwind
TTITLE8=Do Your Own Thing
EXTD=
EXTT0=
EXTT1=
EXTT2=
EXTT3=
EXTT4=
EXTT5=
EXTT6=
EXTT7=
EXTT8=
PLAYORDER=
